<svg width="32" height="32" viewBox="0 0 32 32" fill="none" xmlns="http://www.w3.org/2000/svg">
  <!-- Background circle -->
  <circle cx="16" cy="16" r="15" fill="#3B82F6" stroke="#1E40AF" stroke-width="2"/>

  <!-- House/condo building -->
  <rect x="8" y="12" width="16" height="8" fill="#FFFFFF" stroke="#1E40AF" stroke-width="1"/>
  <rect x="10" y="14" width="2" height="2" fill="#3B82F6"/>
  <rect x="20" y="14" width="2" height="2" fill="#3B82F6"/>
  <rect x="10" y="17" width="2" height="2" fill="#3B82F6"/>
  <rect x="20" y="17" width="2" height="2" fill="#3B82F6"/>

  <!-- Roof -->
  <polygon points="8,12 16,6 24,12" fill="#FFFFFF" stroke="#1E40AF" stroke-width="1"/>

  <!-- Garage door -->
  <rect x="12" y="20" width="8" height="4" fill="#F59E0B" stroke="#D97706" stroke-width="1"/>
  <line x1="16" y1="20" x2="16" y2="24" stroke="#D97706" stroke-width="1"/>

  <!-- Price tag -->
  <rect x="22" y="4" width="6" height="8" rx="1" fill="#10B981" stroke="#059669" stroke-width="1"/>
  <text x="25" y="9" font-family="Arial, sans-serif" font-size="6" font-weight="bold" fill="#FFFFFF" text-anchor="middle">$</text>

  <!-- Sale sign -->
  <rect x="2" y="6" width="8" height="4" rx="1" fill="#EF4444" stroke="#DC2626" stroke-width="1"/>
  <text x="6" y="8.5" font-family="Arial, sans-serif" font-size="4" font-weight="bold" fill="#FFFFFF" text-anchor="middle">SALE</text>

  <!-- Small items representing garage sale -->
  <circle cx="6" cy="26" r="1.5" fill="#8B5CF6"/>
  <rect x="24" y="26" width="2" height="2" fill="#F59E0B"/>
  <polygon points="28,26 29,28 26,28" fill="#10B981"/>
</svg>
