<svg width="32" height="32" viewBox="0 0 32 32" fill="none" xmlns="http://www.w3.org/2000/svg">
  <!-- Background circle with gradient -->
  <defs>
    <radialGradient id="bg" cx="50%" cy="50%" r="50%">
      <stop offset="0%" style="stop-color:#FFE4E6;stop-opacity:1" />
      <stop offset="100%" style="stop-color:#F3E8FF;stop-opacity:1" />
    </radialGradient>
  </defs>
  <circle cx="16" cy="16" r="15" fill="url(#bg)" stroke="#EC4899" stroke-width="2"/>
  
  <!-- Cartoon girl head -->
  <circle cx="16" cy="14" r="6" fill="#FBBF24" stroke="#F59E0B" stroke-width="1"/>
  
  <!-- Hair pigtails -->
  <circle cx="11" cy="10" r="2.5" fill="#8B5CF6"/>
  <circle cx="21" cy="10" r="2.5" fill="#8B5CF6"/>
  
  <!-- Face features -->
  <circle cx="14" cy="13" r="0.8" fill="#1F2937"/> <!-- left eye -->
  <circle cx="18" cy="13" r="0.8" fill="#1F2937"/> <!-- right eye -->
  <path d="M 14 16 Q 16 17 18 16" stroke="#1F2937" stroke-width="1" fill="none"/> <!-- smile -->
  
  <!-- Floating garage sale items -->
  <!-- Teddy bear -->
  <circle cx="6" cy="8" r="2" fill="#EF4444"/>
  <circle cx="5.5" cy="7.5" r="0.5" fill="#EF4444"/> <!-- ear -->
  <circle cx="6.5" cy="7.5" r="0.5" fill="#EF4444"/> <!-- ear -->
  <circle cx="5.8" cy="8" r="0.2" fill="#1F2937"/> <!-- eye -->
  <circle cx="6.2" cy="8" r="0.2" fill="#1F2937"/> <!-- eye -->
  
  <!-- Toy car -->
  <rect x="24" y="6" width="4" height="2" fill="#10B981" rx="0.5"/>
  <circle cx="25" cy="8.5" r="0.8" fill="#1F2937"/> <!-- wheel -->
  <circle cx="27" cy="8.5" r="0.8" fill="#1F2937"/> <!-- wheel -->
  
  <!-- Ball -->
  <circle cx="26" cy="20" r="2" fill="#F59E0B"/>
  <path d="M 24 20 Q 26 18 28 20" stroke="#FFFFFF" stroke-width="0.5" fill="none"/>
  <path d="M 26 18 Q 28 20 26 22" stroke="#FFFFFF" stroke-width="0.5" fill="none"/>
  
  <!-- Book -->
  <rect x="4" y="22" width="3" height="4" fill="#3B82F6" rx="0.2"/>
  <line x1="4.5" y1="22.5" x2="6.5" y2="22.5" stroke="#FFFFFF" stroke-width="0.3"/>
  <line x1="4.5" y1="23.5" x2="6.5" y2="23.5" stroke="#FFFFFF" stroke-width="0.3"/>
  
  <!-- Price tag -->
  <polygon points="28,24 30,24 30,28 28,26" fill="#10B981"/>
  <text x="29" y="26" font-family="Arial, sans-serif" font-size="3" font-weight="bold" fill="#FFFFFF" text-anchor="middle">$</text>
  
  <!-- Hearts floating around (cute effect) -->
  <path d="M 9 24 Q 9.5 23.5 10 24 Q 10.5 23.5 11 24 Q 10.5 24.5 10 24 Q 9.5 24.5 9 24" fill="#EC4899"/>
  <path d="M 20 4 Q 20.3 3.7 20.6 4 Q 20.9 3.7 21.2 4 Q 20.9 4.3 20.6 4 Q 20.3 4.3 20 4" fill="#EC4899"/>
</svg>
